<svg width="59" height="70" viewBox="0 0 59 70" fill="none" xmlns="http://www.w3.org/2000/svg">
<g clip-path="url(#clip0_1413_3239)">
<path d="M0.600098 53.7499L30.9101 36.1299L51.4901 48.0099L46.5701 50.8699L32.1001 42.5199L24.7701 46.7799L39.3301 55.1899L34.4201 58.0499L19.8501 49.6399L11.6301 54.4199L27.3701 63.4999L22.4501 66.3599L0.600098 53.7499Z" fill="#1E2480"/>
<path d="M0.600098 53.7499L30.9101 36.1299L51.4901 48.0099L46.5701 50.8699L32.1001 42.5199L24.7701 46.7799L39.3301 55.1899L34.4201 58.0499L19.8501 49.6399L11.6301 54.4199L27.3701 63.4999L22.4501 66.3599L0.600098 53.7499Z" stroke="#1E2480" stroke-linecap="round" stroke-linejoin="round"/>
<path d="M50.77 45.7696C48.87 45.7696 46.73 45.0896 44.4 43.7396C42.01 42.3596 39.82 40.5096 37.89 38.2596C35.97 36.0196 34.42 33.4296 33.29 30.5496C32.17 27.6796 31.6 24.6296 31.61 21.4996L31.67 0.55957L37.43 3.88957L37.37 24.6996C37.37 27.6796 37.98 30.2996 39.21 32.4796C40.43 34.6496 42.15 36.3796 44.31 37.6296C45.64 38.3996 46.82 38.7896 47.82 38.7896C48.43 38.7896 48.98 38.6496 49.47 38.3596C50.74 37.5996 51.39 35.6896 51.4 32.6796L51.46 11.9896L57.23 15.3196L57.17 36.3796C57.17 39.4996 56.58 41.8696 55.46 43.4296C54.34 44.9696 52.8 45.7596 50.89 45.7796H50.78L50.77 45.7696Z" fill="#C1C5F5"/>
<path d="M50.77 45.7696C48.87 45.7696 46.73 45.0896 44.4 43.7396C42.01 42.3596 39.82 40.5096 37.89 38.2596C35.97 36.0196 34.42 33.4296 33.29 30.5496C32.17 27.6796 31.6 24.6296 31.61 21.4996L31.67 0.55957L37.43 3.88957L37.37 24.6996C37.37 27.6796 37.98 30.2996 39.21 32.4796C40.43 34.6496 42.15 36.3796 44.31 37.6296C45.64 38.3996 46.82 38.7896 47.82 38.7896C48.43 38.7896 48.98 38.6496 49.47 38.3596C50.74 37.5996 51.39 35.6896 51.4 32.6796L51.46 11.9896L57.23 15.3196L57.17 36.3796C57.17 39.4996 56.58 41.8696 55.46 43.4296C54.34 44.9696 52.8 45.7596 50.89 45.7796H50.78L50.77 45.7696Z" stroke="#C1C5F5" stroke-linecap="round" stroke-linejoin="round"/>
<path d="M20.7301 29.91L27.5201 9.48L6.51007 21.7L0.820068 18.42L31.6501 0.5L37.3001 3.76L30.5001 24.18L51.5201 11.97L57.2101 15.26L26.3801 33.17L20.7301 29.91Z" fill="#6269F4"/>
<path d="M20.7301 29.91L27.5201 9.48L6.51007 21.7L0.820068 18.42L31.6501 0.5L37.3001 3.76L30.5001 24.18L51.5201 11.97L57.2101 15.26L26.3801 33.17L20.7301 29.91Z" stroke="#6269F4" stroke-linecap="round" stroke-linejoin="round"/>
<path d="M0.5 53.6796L0.6 18.5596L26.15 33.3196L26.13 39.0196L7.76 28.3996L7.73 36.8996L24.74 46.7196L24.72 52.4196L7.72 42.5996L7.69 52.1196L26.19 62.7696L26.17 68.4696L0.5 53.6796Z" fill="#2A2F9C"/>
<path d="M0.5 53.6796L0.6 18.5596L26.15 33.3196L26.13 39.0196L7.76 28.3996L7.73 36.8996L24.74 46.7196L24.72 52.4196L7.72 42.5996L7.69 52.1196L26.19 62.7696L26.17 68.4696L0.5 53.6796Z" stroke="#2A2F9C" stroke-linecap="round" stroke-linejoin="round"/>
<path d="M26.95 33.3203L40.7599 25.3503C44.0199 23.4703 46.97 22.3703 49.54 22.1003C49.95 22.0603 50.35 22.0303 50.74 22.0303C52.75 22.0303 54.39 22.6503 55.61 23.8803C57.07 25.3403 57.82 27.7103 57.83 30.9103V35.1303C57.85 38.3503 57.11 41.5803 55.65 44.7503C54.19 47.9203 52.1399 50.9103 49.5499 53.6203C46.9799 56.3103 44.03 58.6303 40.77 60.5103L27.0599 68.4303L26.9599 33.3203H26.95ZM47.2299 28.6703C45.5299 28.6703 43.43 29.3803 41 30.7903L33.9799 34.8403L34.0499 58.1203L41.16 54.0103C44.33 52.1803 46.8899 49.8803 48.7799 47.1903C50.6599 44.5003 51.6099 41.5003 51.5999 38.2803V34.4903C51.5799 31.2703 50.59 29.3703 48.63 28.8403C48.19 28.7203 47.72 28.6603 47.22 28.6603L47.2299 28.6703Z" fill="#A0A5FF"/>
<path d="M26.95 33.3203L40.7599 25.3503C44.0199 23.4703 46.97 22.3703 49.54 22.1003C49.95 22.0603 50.35 22.0303 50.74 22.0303C52.75 22.0303 54.39 22.6503 55.61 23.8803C57.07 25.3403 57.82 27.7103 57.83 30.9103V35.1303C57.85 38.3503 57.11 41.5803 55.65 44.7503C54.19 47.9203 52.1399 50.9103 49.5499 53.6203C46.9799 56.3103 44.03 58.6303 40.77 60.5103L27.0599 68.4303L26.9599 33.3203H26.95ZM47.2299 28.6703C45.5299 28.6703 43.43 29.3803 41 30.7903L33.9799 34.8403L34.0499 58.1203L41.16 54.0103C44.33 52.1803 46.8899 49.8803 48.7799 47.1903C50.6599 44.5003 51.6099 41.5003 51.5999 38.2803V34.4903C51.5799 31.2703 50.59 29.3703 48.63 28.8403C48.19 28.7203 47.72 28.6603 47.22 28.6603L47.2299 28.6703Z" stroke="#A0A5FF" stroke-linecap="round" stroke-linejoin="round"/>
</g>
<defs>
<clipPath id="clip0_1413_3239">
<rect width="58.43" height="69.1" fill="white"/>
</clipPath>
</defs>
</svg>
