<svg width="43" height="53" viewBox="0 0 43 53" fill="none" xmlns="http://www.w3.org/2000/svg">
<path d="M32.6773 19.5371L15.2082 49.9116L11.114 46.0836L4.44741 47.6602L23.8115 14.4184L32.6773 19.5371Z" fill="#D9D9D9"/>
<path d="M27.0365 19.564L11.6696 46.6386L11.114 46.0834L10.0029 46.639L26.3368 19.1601L27.0365 19.564Z" fill="white"/>
<path d="M10.0539 19.5235L27.523 49.8979L31.6172 46.0699L38.2838 47.6465L18.9197 14.4047L10.0539 19.5235Z" fill="#D9D9D9"/>
<path d="M15.6947 19.5514L31.0616 46.6259L31.6172 46.0707L32.7283 46.6263L16.3944 19.1474L15.6947 19.5514Z" fill="white"/>
<rect x="0.00292969" width="42" height="42" rx="21" fill="#AAAAAA"/>
<rect x="0.00292969" width="42" height="42" rx="21" fill="url(#paint0_radial_1663_14836)" fill-opacity="0.2"/>
<path d="M21.1218 20.14C21.5351 19.7133 21.8618 19.34 22.1018 19.02C22.3418 18.7 22.5218 18.4133 22.6418 18.16C22.7618 17.9067 22.8351 17.6733 22.8618 17.46C22.8884 17.2467 22.9018 17.04 22.9018 16.84V16.68C22.9018 16.2933 22.7418 15.9467 22.4218 15.64C22.1151 15.32 21.5884 15.16 20.8418 15.16C20.5751 15.16 20.3084 15.1867 20.0418 15.24C19.7884 15.2933 19.5351 15.3933 19.2818 15.54C19.0284 15.6867 18.7751 15.8933 18.5218 16.16C18.2818 16.4267 18.0418 16.7667 17.8018 17.18L15.8818 15.92C16.0551 15.6133 16.2684 15.28 16.5218 14.92C16.7884 14.56 17.1151 14.2333 17.5018 13.94C17.9018 13.6333 18.3684 13.38 18.9018 13.18C19.4484 12.98 20.0884 12.88 20.8218 12.88C21.6351 12.88 22.3351 12.98 22.9218 13.18C23.5084 13.38 23.9884 13.6533 24.3618 14C24.7484 14.3333 25.0284 14.7267 25.2018 15.18C25.3884 15.62 25.4818 16.0867 25.4818 16.58V16.78C25.4818 17.5667 25.3018 18.32 24.9418 19.04C24.5951 19.7467 24.0818 20.44 23.4018 21.12L19.1618 25.4H26.0218V27.52H15.8218V25.6L21.1218 20.14Z" fill="white"/>
<defs>
<radialGradient id="paint0_radial_1663_14836" cx="0" cy="0" r="1" gradientUnits="userSpaceOnUse" gradientTransform="translate(21.0029 21) rotate(90) scale(21)">
<stop stop-color="white" stop-opacity="0"/>
<stop offset="0.546875" stop-color="white" stop-opacity="0"/>
<stop offset="0.567708" stop-color="white"/>
<stop offset="0.744792" stop-color="white" stop-opacity="0"/>
<stop offset="0.848858" stop-color="white"/>
<stop offset="1" stop-color="white" stop-opacity="0"/>
</radialGradient>
</defs>
</svg>
