<svg width="43" height="56" viewBox="0 0 43 56" fill="none" xmlns="http://www.w3.org/2000/svg">
<g clip-path="url(#clip0_1704_5279)">
<path d="M17.6101 21.1525L36.0501 52.8395C36.2901 53.2599 35.9201 53.7603 35.4501 53.6502L30.3201 52.4392C30.1401 52.3991 29.9501 52.4392 29.8201 52.5693L26.4501 55.722C26.1901 55.9622 25.7701 55.9021 25.6001 55.5918L8.74013 26.2869C8.59013 26.0266 8.68013 25.6863 8.94013 25.5362L16.8601 20.9623C17.1201 20.8122 17.4601 20.9023 17.6101 21.1625V21.1525ZM33.2601 26.407L16.4101 55.732C16.2301 56.0422 15.8201 56.1023 15.5601 55.8621L12.1901 52.7094C12.0601 52.5793 11.8701 52.5292 11.6901 52.5793L6.56013 53.7903C6.09013 53.9004 5.71013 53.4 5.96013 52.9796L24.4001 21.2926C24.5501 21.0324 24.8901 20.9423 25.1501 21.0924L33.0701 25.6663C33.3301 25.8165 33.4201 26.1567 33.2701 26.417L33.2601 26.407Z" fill="#FF4444"/>
<mask id="mask0_1704_5279" style="mask-type:luminance" maskUnits="userSpaceOnUse" x="5" y="20" width="32" height="37">
<path d="M17.6101 21.1525L36.0501 52.8395C36.2901 53.2599 35.9201 53.7603 35.4501 53.6502L30.3201 52.4392C30.1401 52.3991 29.9501 52.4392 29.8201 52.5693L26.4501 55.722C26.1901 55.9622 25.7701 55.9021 25.6001 55.5918L8.74013 26.2869C8.59013 26.0266 8.68013 25.6863 8.94013 25.5362L16.8601 20.9623C17.1201 20.8122 17.4601 20.9023 17.6101 21.1625V21.1525ZM33.2601 26.407L16.4101 55.732C16.2301 56.0422 15.8201 56.1023 15.5601 55.8621L12.1901 52.7094C12.0601 52.5793 11.8701 52.5292 11.6901 52.5793L6.56013 53.7903C6.09013 53.9004 5.71013 53.4 5.96013 52.9796L24.4001 21.2926C24.5501 21.0324 24.8901 20.9423 25.1501 21.0924L33.0701 25.6663C33.3301 25.8165 33.4201 26.1567 33.2701 26.417L33.2601 26.407Z" fill="white"/>
</mask>
<g mask="url(#mask0_1704_5279)">
<path d="M6.68018 41.75C6.68018 41.75 9.37018 48.9962 20.5602 48.9962C31.7502 48.9962 35.6302 42.1103 35.6302 42.1103L6.68018 41.75Z" fill="#E63D3D"/>
<path d="M21.55 47.9358C21.4 48.8266 21.04 49.6973 21.04 49.6973L21.11 49.9775C21.41 49.4271 21.86 47.9258 21.86 47.9258H21.56L21.55 47.9358Z" fill="#E63D3D"/>
</g>
<path d="M21 48.0456C32.598 48.0456 42 38.6356 42 27.0277C42 15.4198 32.598 6.00977 21 6.00977C9.40202 6.00977 0 15.4198 0 27.0277C0 38.6356 9.40202 48.0456 21 48.0456Z" fill="#AAAAAA"/>
<mask id="mask1_1704_5279" style="mask-type:luminance" maskUnits="userSpaceOnUse" x="0" y="6" width="42" height="43">
<path d="M21 48.0456C32.598 48.0456 42 38.6356 42 27.0277C42 15.4198 32.598 6.00977 21 6.00977C9.40202 6.00977 0 15.4198 0 27.0277C0 38.6356 9.40202 48.0456 21 48.0456Z" fill="white"/>
</mask>
<g mask="url(#mask1_1704_5279)">
<g style="mix-blend-mode:soft-light" opacity="0.5">
<path d="M42.2254 7.46429L29.313 0.00292969L2.94799 45.7074L15.8604 53.1688L42.2254 7.46429Z" fill="white"/>
</g>
<g style="mix-blend-mode:soft-light" opacity="0.5">
<path d="M28.24 43.3022L25.03 44.3231L38.04 21.5137L38.86 25.6272L28.24 43.3022Z" fill="white"/>
</g>
</g>
<path d="M21 44.8228C30.8196 44.8228 38.78 36.8556 38.78 27.0276C38.78 17.1996 30.8196 9.23242 21 9.23242C11.1803 9.23242 3.21997 17.1996 3.21997 27.0276C3.21997 36.8556 11.1803 44.8228 21 44.8228Z" stroke="#808080" stroke-width="0.75" stroke-miterlimit="10"/>
<path d="M21.5565 27.02C21.9698 26.5667 22.2965 26.1733 22.5365 25.84C22.7765 25.5067 22.9565 25.2133 23.0765 24.96C23.1965 24.6933 23.2698 24.46 23.2965 24.26C23.3365 24.0467 23.3565 23.8467 23.3565 23.66V23.5C23.3565 22.9267 23.1298 22.48 22.6765 22.16C22.2365 21.8267 21.6365 21.66 20.8765 21.66C20.6098 21.66 20.3365 21.6933 20.0565 21.76C19.7898 21.8133 19.5232 21.92 19.2565 22.08C18.9898 22.24 18.7298 22.46 18.4765 22.74C18.2232 23.0067 17.9765 23.3467 17.7365 23.76L16.2165 22.78C16.3898 22.4733 16.6032 22.1533 16.8565 21.82C17.1098 21.4733 17.4165 21.16 17.7765 20.88C18.1498 20.5867 18.5832 20.3467 19.0765 20.16C19.5832 19.9733 20.1698 19.88 20.8365 19.88C21.5698 19.88 22.2165 19.9733 22.7765 20.16C23.3365 20.3333 23.8032 20.58 24.1765 20.9C24.5632 21.22 24.8498 21.6067 25.0365 22.06C25.2365 22.5 25.3365 22.98 25.3365 23.5V23.7C25.3365 24.4867 25.1298 25.2267 24.7165 25.92C24.3032 26.6133 23.7698 27.3067 23.1165 28L18.6165 32.8H25.8565V34.52H16.1765V32.86L21.5565 27.02Z" fill="black"/>
</g>
<defs>
<clipPath id="clip0_1704_5279">
<rect width="42.23" height="55.97" fill="white"/>
</clipPath>
</defs>
</svg>
