<svg width="160" height="160" viewBox="0 0 160 160" fill="none" xmlns="http://www.w3.org/2000/svg">
<path d="M56.5148 116.378H103.497C105.789 116.378 107.644 118.238 107.644 120.536V124.694H52.3772V120.536C52.3772 118.238 54.2327 116.378 56.5247 116.378H56.5148Z" fill="#6269F5"/>
<path d="M42.703 124.684H117.319C119.611 124.684 121.466 126.544 121.466 128.842V133H38.5654V128.842C38.5654 126.544 40.4209 124.684 42.7129 124.684H42.703Z" fill="#6269F5"/>
<path d="M144.953 27H15.0703C12.7797 27 10.9228 28.8616 10.9228 31.158C10.9228 33.4544 12.7797 35.3161 15.0703 35.3161H144.953C147.244 35.3161 149.101 33.4544 149.101 31.158C149.101 28.8616 147.244 27 144.953 27Z" fill="#6269F5"/>
<path d="M75.8643 33.5156V116.626H84.1594V33.5156H75.8643Z" fill="#6269F5"/>
<path d="M49.7389 88.2264H18.0867C16.7373 88.2264 15.4771 87.5699 14.6833 86.4757L10 79.9203H57.8057L53.1224 86.4757C52.3385 87.5798 51.0685 88.2264 49.719 88.2264H49.7389Z" fill="#6269F5"/>
<path d="M28.9114 27.8406L10.0088 79.9063L17.8036 82.7506L36.7062 30.6849L28.9114 27.8406Z" fill="#6269F5"/>
<path d="M31.1116 30.6859L50.0141 82.7517L57.8089 79.9074L38.9064 27.8417L31.1116 30.6859Z" fill="#6269F5"/>
<path d="M141.927 88.2165H110.275C108.925 88.2165 107.665 87.5599 106.872 86.4657L102.188 79.9104H149.994L145.311 86.4657C144.527 87.5699 143.257 88.2165 141.907 88.2165H141.927Z" fill="#6269F5"/>
<path d="M121.097 27.8437L102.194 79.9095L109.989 82.7537L128.892 30.688L121.097 27.8437Z" fill="#6269F5"/>
<path d="M123.303 30.6891L142.205 82.7548L150 79.9105L131.097 27.8448L123.303 30.6891Z" fill="#6269F5"/>
</svg>
