<svg width="29" height="27" viewBox="0 0 29 27" fill="none" xmlns="http://www.w3.org/2000/svg">
<path d="M13.5095 10.1366C15.4737 10.1366 17.066 8.53118 17.066 6.55074C17.066 4.57031 15.4737 2.96484 13.5095 2.96484C11.5454 2.96484 9.95312 4.57031 9.95312 6.55074C9.95312 8.53118 11.5454 10.1366 13.5095 10.1366Z" stroke="#6269F5" stroke-width="1.5" stroke-linejoin="round"/>
<path d="M8.34546 24.9645V18.8261C8.34546 18.4114 7.8592 18.1924 7.55399 18.4714L2.5 24.7696V20.1379C2.5 20.0049 2.55432 19.8771 2.6526 19.7858L8.20837 12.9217C8.29631 12.8409 8.41012 12.794 8.5291 12.794H17.6853C17.7758 12.794 17.8663 12.7679 17.9413 12.7183L25.768 5.97683C26.0836 5.77081 26.5 6.00031 26.5 6.37846V9.26543C26.5 9.42973 26.4172 9.5836 26.2776 9.66966L18.0448 16.4424C17.9077 16.5311 17.8223 16.6824 17.8223 16.8467V24.9592" stroke="#6269F5" stroke-width="1.5" stroke-linejoin="round"/>
</svg>
