<svg width="43" height="58" viewBox="0 0 43 58" fill="none" xmlns="http://www.w3.org/2000/svg">
<path d="M17.6101 19.1427L36.0501 50.8297C36.2901 51.2501 35.9201 51.7505 35.4501 51.6404L30.3201 50.4294C30.1401 50.3894 29.9501 50.4294 29.8201 50.5595L26.4501 53.7122C26.1901 53.9524 25.7701 53.8923 25.6001 53.5821L8.74013 24.2771C8.59013 24.0169 8.68013 23.6766 8.94013 23.5265L16.8601 18.9526C17.1201 18.8024 17.4601 18.8925 17.6101 19.1527V19.1427ZM33.2601 24.3972L16.4101 53.7222C16.2301 54.0325 15.8201 54.0925 15.5601 53.8523L12.1901 50.6996C12.0601 50.5695 11.8701 50.5195 11.6901 50.5695L6.56013 51.7805C6.09013 51.8906 5.71013 51.3902 5.96013 50.9698L24.4001 19.2828C24.5501 19.0226 24.8901 18.9325 25.1501 19.0827L33.0701 23.6566C33.3301 23.8067 33.4201 24.147 33.2701 24.4072L33.2601 24.3972Z" fill="#FF4444"/>
<mask id="mask0_1704_5243" style="mask-type:luminance" maskUnits="userSpaceOnUse" x="5" y="18" width="32" height="36">
<path d="M17.6101 19.1427L36.0501 50.8297C36.2901 51.2501 35.9201 51.7505 35.4501 51.6404L30.3201 50.4294C30.1401 50.3894 29.9501 50.4294 29.8201 50.5595L26.4501 53.7122C26.1901 53.9524 25.7701 53.8923 25.6001 53.5821L8.74013 24.2771C8.59013 24.0169 8.68013 23.6766 8.94013 23.5265L16.8601 18.9526C17.1201 18.8024 17.4601 18.8925 17.6101 19.1527V19.1427ZM33.2601 24.3972L16.4101 53.7222C16.2301 54.0325 15.8201 54.0925 15.5601 53.8523L12.1901 50.6996C12.0601 50.5695 11.8701 50.5195 11.6901 50.5695L6.56013 51.7805C6.09013 51.8906 5.71013 51.3902 5.96013 50.9698L24.4001 19.2828C24.5501 19.0226 24.8901 18.9325 25.1501 19.0827L33.0701 23.6566C33.3301 23.8067 33.4201 24.147 33.2701 24.4072L33.2601 24.3972Z" fill="white"/>
</mask>
<g mask="url(#mask0_1704_5243)">
<path d="M6.68018 39.7402C6.68018 39.7402 9.37018 46.9864 20.5602 46.9864C31.7502 46.9864 35.6302 40.1005 35.6302 40.1005L6.68018 39.7402Z" fill="#E63D3D"/>
<path d="M21.55 45.926C21.4 46.8168 21.04 47.6875 21.04 47.6875L21.11 47.9678C21.41 47.4173 21.86 45.916 21.86 45.916H21.56L21.55 45.926Z" fill="#E63D3D"/>
</g>
<path d="M21 46.0358C32.598 46.0358 42 36.6258 42 25.0179C42 13.41 32.598 4 21 4C9.40202 4 0 13.41 0 25.0179C0 36.6258 9.40202 46.0358 21 46.0358Z" fill="#FFD338"/>
<mask id="mask1_1704_5243" style="mask-type:luminance" maskUnits="userSpaceOnUse" x="0" y="4" width="42" height="43">
<path d="M21 46.0358C32.598 46.0358 42 36.6258 42 25.0179C42 13.41 32.598 4 21 4C9.40202 4 0 13.41 0 25.0179C0 36.6258 9.40202 46.0358 21 46.0358Z" fill="white"/>
</mask>
<g mask="url(#mask1_1704_5243)">
<g style="mix-blend-mode:soft-light" opacity="0.5">
<path d="M42.2254 5.45453L29.313 -2.00684L2.94799 43.6976L15.8604 51.159L42.2254 5.45453Z" fill="white"/>
</g>
<g style="mix-blend-mode:soft-light" opacity="0.5">
<path d="M28.24 41.2925L25.03 42.3134L38.04 19.5039L38.86 23.6174L28.24 41.2925Z" fill="white"/>
</g>
</g>
<path d="M21 42.813C30.8196 42.813 38.78 34.8458 38.78 25.0178C38.78 15.1898 30.8196 7.22266 21 7.22266C11.1803 7.22266 3.21997 15.1898 3.21997 25.0178C3.21997 34.8458 11.1803 42.813 21 42.813Z" stroke="#E6AD00" stroke-width="0.75" stroke-miterlimit="10"/>
<path d="M20.4165 33.52V21.42L17.0365 23.42L16.0965 21.82L20.7365 19.1H22.3965V33.52H20.4165Z" fill="black"/>
</svg>
