<svg width="26" height="26" viewBox="0 0 26 26" fill="none" xmlns="http://www.w3.org/2000/svg">
<g id="kakao">
<path id="Vector" d="M15.3231 13.1077C15.3231 13.2923 15.2308 13.3846 15.1385 13.4769C15.0462 13.5692 14.8615 13.6615 14.7692 13.6615H12.9231C12.7385 13.6615 12.6462 13.5692 12.5538 13.4769C12.4615 13.3846 12.3692 13.2923 12.3692 13.1077V9.32308C12.3692 9.13846 12.4615 9.04615 12.5538 8.95385C12.6462 8.86154 12.8308 8.76923 12.9231 8.76923C13.1077 8.76923 13.2 8.86154 13.2923 8.95385C13.3846 9.04615 13.4769 9.23077 13.4769 9.32308V12.6462H14.7692C14.8615 12.6462 15.0462 12.7385 15.1385 12.8308C15.2308 12.8308 15.3231 12.9231 15.3231 13.1077ZM12 12.8308C12.1846 13.3846 12 13.5692 11.9077 13.6615C11.8154 13.7538 11.6308 13.7538 11.5385 13.7538C11.4462 13.7538 11.3538 13.7538 11.2615 13.6615C11.1692 13.6615 11.0769 13.5692 11.0769 13.4769L10.8 12.7385H9.04615L8.76923 13.4769C8.76923 13.5692 8.67692 13.6615 8.58462 13.6615C8.49231 13.6615 8.4 13.7538 8.30769 13.7538C8.21538 13.7538 8.03077 13.7538 7.93846 13.6615C7.75385 13.5692 7.66154 13.3846 7.84615 12.8308L9.23077 9.23077C9.32308 9.04615 9.41539 8.95385 9.50769 8.86154C9.6 8.76923 9.78462 8.67692 9.96923 8.67692C10.1538 8.67692 10.3385 8.76923 10.4308 8.86154C10.5231 8.95385 10.7077 9.13846 10.7077 9.23077L12 12.8308ZM10.5231 11.7231L9.96923 10.1538L9.41538 11.7231H10.5231ZM8.58462 9.23077C8.58462 9.04615 8.49231 8.95385 8.4 8.86154C8.30769 8.76923 8.21538 8.67692 8.03077 8.67692H5.16923C5.07692 8.67692 4.98462 8.67692 4.98462 8.67692C4.89231 8.67692 4.89231 8.76923 4.8 8.76923C4.70769 8.95385 4.70769 8.95385 4.61538 9.04615C4.61538 9.13846 4.61538 9.23077 4.61538 9.23077C4.61538 9.32308 4.61538 9.41538 4.61538 9.41538C4.61538 9.50769 4.70769 9.50769 4.70769 9.6C4.8 9.69231 4.8 9.69231 4.89231 9.69231C4.98462 9.69231 4.98462 9.69231 5.07692 9.69231H6V13.0154C6 13.2 6.09231 13.2923 6.18462 13.3846C6.27692 13.4769 6.46154 13.5692 6.55385 13.5692C6.73846 13.5692 6.83077 13.4769 6.92308 13.3846C7.01538 13.2923 7.10769 13.1077 7.10769 13.0154V9.69231H8.03077C8.21538 9.69231 8.30769 9.6 8.4 9.50769C8.58462 9.6 8.58462 9.41538 8.58462 9.23077ZM17.6308 10.9846L18.9231 9.69231C18.9231 9.69231 19.0154 9.6 19.0154 9.50769C19.0154 9.41539 19.0154 9.41539 19.0154 9.32308C19.0154 9.13846 18.9231 9.04615 18.8308 8.95385C18.7385 8.86154 18.5538 8.76923 18.4615 8.76923C18.3692 8.76923 18.2769 8.76923 18.1846 8.86154L16.6154 10.5231V9.32308C16.6154 9.13846 16.5231 9.04615 16.4308 8.95385C16.3385 8.86154 16.1538 8.76923 16.0615 8.76923C15.8769 8.76923 15.7846 8.86154 15.6923 8.95385C15.6 9.04615 15.5077 9.23077 15.5077 9.32308V13.2C15.5077 13.2923 15.5077 13.3846 15.5077 13.3846C15.5077 13.4769 15.6 13.4769 15.6 13.5692C15.6923 13.6615 15.6923 13.6615 15.7846 13.6615C15.8769 13.6615 15.9692 13.6615 15.9692 13.6615C16.0615 13.6615 16.1538 13.6615 16.1538 13.6615C16.1538 13.6615 16.2462 13.5692 16.3385 13.5692C16.4308 13.4769 16.4308 13.4769 16.4308 13.3846C16.4308 13.2923 16.4308 13.2 16.4308 13.2V12L16.6154 11.8154L17.9077 13.5692C18 13.6615 18.0923 13.7538 18.2769 13.7538C18.4615 13.7538 18.5538 13.7538 18.7385 13.6615C18.8308 13.5692 18.9231 13.4769 18.9231 13.2923C18.9231 13.1077 18.9231 13.0154 18.8308 12.8308L17.6308 10.9846ZM0 21.2308V2.76923C0 1.2 1.2 0 2.76923 0H21.2308C22.8 0 24 1.2 24 2.76923V21.2308C24 22.8 22.8 24 21.2308 24H2.76923C1.2 24 0 22.8 0 21.2308ZM21.7846 10.9846C21.7846 6.73846 17.4462 3.32308 12 3.32308C6.55385 3.32308 2.21538 6.73846 2.21538 10.9846C2.30769 12.3692 2.76923 13.7538 3.6 14.8615C4.43077 16.0615 5.53846 16.9846 6.83077 17.5385C6.64615 18.0923 5.90769 20.8615 5.81538 21.0462C5.81538 21.0462 5.81538 21.2308 5.90769 21.2308H6H6.09231C6.36923 21.2308 9.69231 18.9231 10.2462 18.5538C10.8 18.6462 11.3538 18.6462 12 18.6462C17.3538 18.7385 21.7846 15.2308 21.7846 10.9846Z" fill="#444444"/>
</g>
</svg>
