<svg width="20" height="20" viewBox="0 0 20 20" fill="none" xmlns="http://www.w3.org/2000/svg">
<path id="Vector" d="M3.95011 0.786292C4.30122 0.786292 4.64643 0.914266 4.89935 1.16472L6.54058 3.29434C7.09277 3.84706 7.09277 4.74484 6.53626 5.3007L5.09336 6.77946C4.97868 6.89841 4.94334 7.07427 5.00539 7.22815C6.45418 10.8342 9.29011 13.6673 12.7847 15.0004C12.8334 15.0188 12.884 15.0279 12.9343 15.0279C13.0415 15.0279 13.1464 14.9867 13.2269 14.9093L14.7055 13.4671C14.7055 13.4671 14.7098 13.4647 14.7098 13.4635C14.9773 13.1958 15.3339 13.0533 15.7007 13.0533C16.0675 13.0533 16.4449 13.1962 16.7532 13.4996L18.8025 15.0691L18.8017 15.0667C19.3547 15.6187 19.3547 16.5164 18.7825 17.09L17.9632 18.0321C17.2017 18.7941 16.1669 19.2137 15.0476 19.2137C9.04936 19.2137 0.785074 10.9531 0.785074 4.95682C0.785074 3.83882 1.20491 2.80364 1.94639 2.06249L2.93176 1.20397C3.21335 0.923294 3.58448 0.785114 3.94972 0.785114M3.94972 0C3.36455 0 2.81472 0.22258 2.39803 0.627306L1.43034 1.47013C1.41698 1.4819 1.40363 1.49407 1.39106 1.50663C0.494059 2.4052 0 3.62998 0 4.9576C0 5.76313 0.134315 6.62362 0.39941 7.51551C0.647225 8.3493 1.01011 9.2141 1.47864 10.0864C2.36661 11.7406 3.62336 13.4015 5.11221 14.8901C6.60106 16.3787 8.26311 17.6344 9.9177 18.522C10.79 18.9899 11.6552 19.3531 12.4893 19.6008C13.3812 19.8657 14.2421 20 15.048 20C16.3766 20 17.6094 19.4987 18.5193 18.588C18.5323 18.575 18.5445 18.5621 18.5563 18.5483L19.3598 17.6242C19.769 17.2034 19.996 16.655 20 16.0764C20.0039 15.4852 19.7757 14.9297 19.357 14.5121C19.3205 14.4755 19.2812 14.4434 19.2396 14.4155L17.2661 12.9041C16.8314 12.4943 16.2776 12.269 15.7007 12.269C15.1238 12.269 14.5853 12.4888 14.1753 12.8888C14.169 12.8943 14.1631 12.9002 14.1573 12.9061L12.8479 14.1827C9.72644 12.9222 7.18545 10.38 5.82424 7.15514L7.09552 5.85185C7.93832 5.0051 7.95207 3.63979 7.13479 2.7797L5.52105 0.685797C5.49945 0.657926 5.47628 0.631624 5.45153 0.606893C5.05723 0.216299 4.5239 0.00117767 3.95011 0.00117767L3.94972 0Z" fill="black"/>
</svg>
