<svg width="43" height="57" viewBox="0 0 43 57" fill="none" xmlns="http://www.w3.org/2000/svg">
<g clip-path="url(#clip0_1704_5316)">
<path d="M17.6101 22.1173L36.0501 53.8043C36.2901 54.2247 35.9201 54.7251 35.4501 54.615L30.3201 53.404C30.1401 53.364 29.9501 53.404 29.8201 53.5341L26.4501 56.6868C26.1901 56.927 25.7701 56.867 25.6001 56.5567L8.74013 27.2517C8.59013 26.9915 8.68013 26.6512 8.94013 26.5011L16.8601 21.9272C17.1201 21.777 17.4601 21.8671 17.6101 22.1273V22.1173ZM33.2601 27.3718L16.4101 56.6968C16.2301 57.0071 15.8201 57.0671 15.5601 56.8269L12.1901 53.6742C12.0601 53.5441 11.8701 53.4941 11.6901 53.5441L6.56013 54.7551C6.09013 54.8652 5.71013 54.3648 5.96013 53.9445L24.4001 22.2574C24.5501 21.9972 24.8901 21.9071 25.1501 22.0573L33.0701 26.6312C33.3301 26.7813 33.4201 27.1216 33.2701 27.3818L33.2601 27.3718Z" fill="#FF4444"/>
<mask id="mask0_1704_5316" style="mask-type:luminance" maskUnits="userSpaceOnUse" x="5" y="21" width="32" height="36">
<path d="M17.6101 22.1173L36.0501 53.8043C36.2901 54.2247 35.9201 54.7251 35.4501 54.615L30.3201 53.404C30.1401 53.364 29.9501 53.404 29.8201 53.5341L26.4501 56.6868C26.1901 56.927 25.7701 56.867 25.6001 56.5567L8.74013 27.2517C8.59013 26.9915 8.68013 26.6512 8.94013 26.5011L16.8601 21.9272C17.1201 21.777 17.4601 21.8671 17.6101 22.1273V22.1173ZM33.2601 27.3718L16.4101 56.6968C16.2301 57.0071 15.8201 57.0671 15.5601 56.8269L12.1901 53.6742C12.0601 53.5441 11.8701 53.4941 11.6901 53.5441L6.56013 54.7551C6.09013 54.8652 5.71013 54.3648 5.96013 53.9445L24.4001 22.2574C24.5501 21.9972 24.8901 21.9071 25.1501 22.0573L33.0701 26.6312C33.3301 26.7813 33.4201 27.1216 33.2701 27.3818L33.2601 27.3718Z" fill="white"/>
</mask>
<g mask="url(#mask0_1704_5316)">
<path d="M6.68018 42.7148C6.68018 42.7148 9.37018 49.961 20.5602 49.961C31.7502 49.961 35.6302 43.0752 35.6302 43.0752L6.68018 42.7148Z" fill="#E63D3D"/>
<path d="M21.55 48.9006C21.4 49.7914 21.04 50.6621 21.04 50.6621L21.11 50.9424C21.41 50.3919 21.86 48.8906 21.86 48.8906H21.56L21.55 48.9006Z" fill="#E63D3D"/>
</g>
<path d="M21 49.0104C32.598 49.0104 42 39.6004 42 27.9925C42 16.3847 32.598 6.97461 21 6.97461C9.40202 6.97461 0 16.3847 0 27.9925C0 39.6004 9.40202 49.0104 21 49.0104Z" fill="#DA771C"/>
<mask id="mask1_1704_5316" style="mask-type:luminance" maskUnits="userSpaceOnUse" x="0" y="6" width="42" height="44">
<path d="M21 49.0104C32.598 49.0104 42 39.6004 42 27.9925C42 16.3847 32.598 6.97461 21 6.97461C9.40202 6.97461 0 16.3847 0 27.9925C0 39.6004 9.40202 49.0104 21 49.0104Z" fill="white"/>
</mask>
<g mask="url(#mask1_1704_5316)">
<g style="mix-blend-mode:soft-light" opacity="0.5">
<path d="M42.2254 8.42914L29.313 0.967773L2.94799 46.6723L15.8604 54.1336L42.2254 8.42914Z" fill="white"/>
</g>
<g style="mix-blend-mode:soft-light" opacity="0.5">
<path d="M28.24 44.2671L25.03 45.288L38.04 22.4785L38.86 26.592L28.24 44.2671Z" fill="white"/>
</g>
</g>
<path d="M21 45.7876C30.8196 45.7876 38.78 37.8204 38.78 27.9924C38.78 18.1644 30.8196 10.1973 21 10.1973C11.1803 10.1973 3.21997 18.1644 3.21997 27.9924C3.21997 37.8204 11.1803 45.7876 21 45.7876Z" stroke="#BF6819" stroke-width="0.75" stroke-miterlimit="10"/>
<path d="M16.3965 23.04C16.6098 22.7467 16.8432 22.4667 17.0965 22.2C17.3632 21.9333 17.6632 21.7067 17.9965 21.52C18.3432 21.32 18.7232 21.1667 19.1365 21.06C19.5632 20.94 20.0498 20.88 20.5965 20.88C21.2632 20.88 21.8632 20.9667 22.3965 21.14C22.9298 21.3133 23.3832 21.56 23.7565 21.88C24.1432 22.1867 24.4365 22.5667 24.6365 23.02C24.8498 23.46 24.9565 23.9467 24.9565 24.48V24.68C24.9565 24.96 24.9232 25.26 24.8565 25.58C24.7898 25.9 24.6698 26.2067 24.4965 26.5C24.3232 26.7933 24.0898 27.0667 23.7965 27.32C23.5032 27.5733 23.1365 27.78 22.6965 27.94C23.6698 28.1133 24.3965 28.5 24.8765 29.1C25.3698 29.7 25.6165 30.42 25.6165 31.26V31.56C25.6165 32.0933 25.5165 32.6133 25.3165 33.12C25.1298 33.6133 24.8298 34.06 24.4165 34.46C24.0165 34.8467 23.4965 35.1533 22.8565 35.38C22.2165 35.62 21.4565 35.74 20.5765 35.74C19.7365 35.74 18.9232 35.6067 18.1365 35.34C17.3632 35.0867 16.6365 34.6867 15.9565 34.14L16.9365 32.56C17.6432 33.0667 18.2698 33.4267 18.8165 33.64C19.3632 33.84 19.9498 33.94 20.5765 33.94C21.0965 33.94 21.5498 33.88 21.9365 33.76C22.3232 33.6267 22.6432 33.4533 22.8965 33.24C23.1498 33.0267 23.3365 32.78 23.4565 32.5C23.5765 32.2067 23.6365 31.9 23.6365 31.58V31.32C23.6365 30.84 23.5565 30.4467 23.3965 30.14C23.2498 29.82 23.0432 29.5667 22.7765 29.38C22.5098 29.1933 22.1898 29.06 21.8165 28.98C21.4565 28.9 21.0698 28.86 20.6565 28.86H18.8765V27.14H20.5765C21.0298 27.14 21.4098 27.0733 21.7165 26.94C22.0232 26.7933 22.2698 26.6067 22.4565 26.38C22.6432 26.1533 22.7765 25.8933 22.8565 25.6C22.9498 25.3067 22.9965 25.0067 22.9965 24.7V24.54C22.9965 24.22 22.9298 23.9467 22.7965 23.72C22.6765 23.48 22.5098 23.28 22.2965 23.12C22.0832 22.96 21.8298 22.84 21.5365 22.76C21.2432 22.68 20.9365 22.64 20.6165 22.64C20.0165 22.64 19.4965 22.7533 19.0565 22.98C18.6165 23.2067 18.2032 23.5733 17.8165 24.08L16.3965 23.04Z" fill="black"/>
</g>
<defs>
<clipPath id="clip0_1704_5316">
<rect width="42.23" height="55.97" fill="white" transform="translate(0 0.964844)"/>
</clipPath>
</defs>
</svg>
