<svg width="43" height="54" viewBox="0 0 43 54" fill="none" xmlns="http://www.w3.org/2000/svg">
<path d="M32.6793 20.4219L15.2102 50.7963L11.116 46.9684L4.44936 48.545L23.8134 15.3032L32.6793 20.4219Z" fill="#D9D9D9"/>
<path d="M27.0385 20.4488L11.6716 47.5234L11.116 46.9682L10.0049 47.5237L26.3388 20.0449L27.0385 20.4488Z" fill="white"/>
<path d="M10.0558 20.4082L27.5249 50.7827L31.6191 46.9547L38.2857 48.5313L18.9217 15.2895L10.0558 20.4082Z" fill="#D9D9D9"/>
<path d="M15.6967 20.4361L31.0635 47.5107L31.6191 46.9555L32.7302 47.511L16.3963 20.0322L15.6967 20.4361Z" fill="white"/>
<rect x="0.00488281" y="0.884766" width="42" height="42" rx="21" fill="#DA771C"/>
<rect x="0.00488281" y="0.884766" width="42" height="42" rx="21" fill="url(#paint0_radial_1663_14860)" fill-opacity="0.2"/>
<path d="M16.1237 15.8448C16.6037 15.2181 17.177 14.7181 17.8437 14.3448C18.5104 13.9581 19.3637 13.7648 20.4037 13.7648C21.0837 13.7648 21.697 13.8514 22.2437 14.0248C22.7904 14.1981 23.257 14.4448 23.6437 14.7648C24.0304 15.0714 24.3304 15.4514 24.5437 15.9048C24.757 16.3448 24.8637 16.8314 24.8637 17.3648V17.5648C24.8637 17.8448 24.8304 18.1514 24.7637 18.4848C24.7104 18.8048 24.6037 19.1181 24.4437 19.4248C24.2837 19.7181 24.0704 19.9914 23.8037 20.2448C23.537 20.4981 23.197 20.7048 22.7837 20.8648C23.7437 21.0381 24.4504 21.4181 24.9037 22.0048C25.357 22.5914 25.5837 23.2981 25.5837 24.1248V24.4248C25.5837 24.9714 25.477 25.4981 25.2637 26.0048C25.0504 26.5114 24.7237 26.9581 24.2837 27.3448C23.857 27.7314 23.3104 28.0381 22.6437 28.2648C21.9904 28.5048 21.2237 28.6248 20.3437 28.6248C19.5037 28.6248 18.6904 28.4914 17.9037 28.2248C17.1304 27.9714 16.4037 27.5714 15.7237 27.0248L16.9837 25.0248C17.3304 25.2781 17.6437 25.4914 17.9237 25.6648C18.217 25.8381 18.497 25.9781 18.7637 26.0848C19.0304 26.1781 19.2904 26.2448 19.5437 26.2848C19.797 26.3248 20.0704 26.3448 20.3637 26.3448C21.2704 26.3448 21.937 26.1648 22.3637 25.8048C22.7904 25.4448 23.0037 24.9448 23.0037 24.3048V24.0448C23.0037 23.3381 22.797 22.8248 22.3837 22.5048C21.9704 22.1714 21.3037 22.0048 20.3837 22.0048H18.4437V19.8048H20.1637C20.617 19.8048 20.9837 19.7581 21.2637 19.6648C21.557 19.5581 21.7837 19.4181 21.9437 19.2448C22.1037 19.0581 22.2104 18.8381 22.2637 18.5848C22.3304 18.3181 22.3637 18.0314 22.3637 17.7248V17.5648C22.3637 17.0181 22.1837 16.6248 21.8237 16.3848C21.477 16.1314 21.0037 16.0048 20.4037 16.0048C19.7904 16.0048 19.2904 16.1181 18.9037 16.3448C18.5304 16.5714 18.1837 16.8581 17.8637 17.2048L16.1237 15.8448Z" fill="white"/>
<defs>
<radialGradient id="paint0_radial_1663_14860" cx="0" cy="0" r="1" gradientUnits="userSpaceOnUse" gradientTransform="translate(21.0049 21.8848) rotate(90) scale(21)">
<stop stop-color="white" stop-opacity="0"/>
<stop offset="0.546875" stop-color="white" stop-opacity="0"/>
<stop offset="0.567708" stop-color="white"/>
<stop offset="0.744792" stop-color="white" stop-opacity="0"/>
<stop offset="0.848858" stop-color="white"/>
<stop offset="1" stop-color="white" stop-opacity="0"/>
</radialGradient>
</defs>
</svg>
