<svg width="26" height="26" viewBox="0 0 26 26" fill="none" xmlns="http://www.w3.org/2000/svg">
<path d="M21.7503 0H2.24974C0.923077 0 0 0.715745 0 2.24901V21.7443C0 23.3311 0.923077 23.9933 2.24974 23.9933H12V14.4986H9.13333V11.0006H12V8.41533C12 5.31705 14.1533 3.63132 16.92 3.63132C18.2467 3.63132 19.6667 3.73126 20 3.7779V7.0161H17.7933C16.2867 7.0161 16 7.72904 16 8.77512V11.0072H19.5867L19.12 14.5053H16V24H21.7503C23.0769 24 24 23.3311 24 21.751V2.24901C24 0.715745 23.0769 0 21.7503 0Z" fill="#444444"/>
</svg>
