<svg width="26" height="26" viewBox="0 0 26 26" fill="none" xmlns="http://www.w3.org/2000/svg">
<g id="instagram">
<path id="Vector" d="M20.7908 23.5H3.20985C2.0932 23.5 1.45846 23.2824 1.08804 22.9118C0.717567 22.5412 0.5 21.9061 0.5 20.789V3.21102C0.5 2.09391 0.717567 1.45881 1.08804 1.0882C1.45846 0.717637 2.0932 0.5 3.20985 0.5H20.7908C21.9071 0.5 22.5417 0.717624 22.912 1.08817C23.2824 1.45879 23.5 2.09391 23.5 3.21102V20.7897C23.5 21.9068 23.2824 22.5417 22.9121 22.9121C22.5418 23.2825 21.9072 23.5 20.7908 23.5ZM7.72438 4.88149H16.4488C17.2057 4.88149 17.9319 5.18289 18.4675 5.71976C19.0032 6.25666 19.3043 6.98511 19.3043 7.74492V16.4898C19.3043 17.2497 19.0032 17.9781 18.4675 18.515C17.9319 19.0519 17.2057 19.3533 16.4488 19.3533H7.72438C6.96743 19.3533 6.24124 19.0519 5.70563 18.515C5.16998 17.9781 4.86885 17.2497 4.86885 16.4898V7.74492C4.86885 6.98511 5.16998 6.25666 5.70563 5.71976C6.24124 5.18289 6.96743 4.88149 7.72438 4.88149ZM7.72438 1.86343C6.16749 1.86343 4.67459 2.48337 3.57406 3.5865C2.47357 4.68958 1.85553 6.18543 1.85553 7.74492V16.4898C1.85553 18.0493 2.47357 19.5452 3.57406 20.6483C4.67459 21.7514 6.16749 22.3713 7.72438 22.3713H16.4488C17.2196 22.3713 17.9829 22.2191 18.6951 21.9235C19.4072 21.6278 20.0542 21.1945 20.5991 20.6483C21.144 20.1021 21.5762 19.4537 21.871 18.7402C22.1659 18.0267 22.3176 17.2621 22.3176 16.4898V7.74492C22.3176 6.18543 21.6996 4.68958 20.5991 3.5865C19.4986 2.48337 18.0057 1.86343 16.4488 1.86343H7.72438ZM12.0866 17.3262C13.4655 17.3262 14.7877 16.7771 15.7623 15.8001C16.737 14.8232 17.2843 13.4985 17.2843 12.1174C17.2843 10.7363 16.737 9.41155 15.7623 8.43462C14.7877 7.45765 13.4655 6.90858 12.0866 6.90858C10.7077 6.90858 9.38547 7.45765 8.4108 8.43462C7.43616 9.41155 6.88883 10.7363 6.88883 12.1174C6.88883 13.4985 7.43616 14.8232 8.4108 15.8001C9.38547 16.7771 10.7077 17.3262 12.0866 17.3262ZM12.0866 14.3081C11.5076 14.3081 10.9521 14.0776 10.5424 13.6669C10.1326 13.2561 9.90215 12.6988 9.90215 12.1174C9.90215 11.536 10.1326 10.9786 10.5424 10.5679C10.9521 10.1572 11.5076 9.92664 12.0866 9.92664C12.6655 9.92664 13.221 10.1572 13.6308 10.5679C14.0406 10.9786 14.271 11.536 14.271 12.1174C14.271 12.6988 14.0406 13.2561 13.6308 13.6669C13.221 14.0776 12.6655 14.3081 12.0866 14.3081ZM17.1199 8.91761C17.6088 8.91761 18.0775 8.7229 18.4229 8.3767C18.7683 8.03053 18.9621 7.56128 18.9621 7.07224C18.9621 6.58319 18.7683 6.11394 18.4229 5.76778C18.0775 5.42157 17.6088 5.22686 17.1199 5.22686C16.6309 5.22686 16.1622 5.42157 15.8168 5.76778C15.4715 6.11394 15.2777 6.58319 15.2777 7.07224C15.2777 7.56128 15.4715 8.03053 15.8168 8.3767C16.1622 8.7229 16.6309 8.91761 17.1199 8.91761Z" fill="#444444" stroke="#444444"/>
</g>
</svg>
