<svg width="20" height="16" viewBox="0 0 20 16" fill="none" xmlns="http://www.w3.org/2000/svg">
<g id="Vector">
<path d="M18.2273 0.754877C18.8148 0.754877 19.2909 1.26178 19.2909 1.88719V14.1128C19.2909 14.7382 18.8148 15.2451 18.2273 15.2451H1.7727C1.18523 15.2451 0.709082 14.7382 0.709082 14.1128V1.88719C0.709082 1.26178 1.18523 0.754877 1.7727 0.754877H18.2273ZM18.2273 0H1.7727C0.795235 0 0 0.846595 0 1.88719V14.1128C0 15.1534 0.795235 16 1.7727 16H18.2273C19.2048 16 20 15.1534 20 14.1128V1.88719C20 0.846595 19.2048 0 18.2273 0Z" fill="black"/>
<path fill-rule="evenodd" clip-rule="evenodd" d="M1.77129 0.754877C0.927063 0.754877 0.527166 1.86271 1.15365 2.46451L9.38263 10.3712C9.73338 10.7083 10.267 10.7083 10.6177 10.3712L10.6178 10.3711L18.8463 2.46455L18.8464 2.46451C19.4728 1.86271 19.0729 0.754877 18.2287 0.754877H1.77129ZM0.678589 3.02493C-0.430009 1.95995 0.27768 0 1.77129 0H18.2287C19.7223 0 20.43 1.95999 19.3214 3.02496L11.0929 10.9315L11.0929 10.9315C10.4722 11.5281 9.52815 11.5281 8.90748 10.9315M0.678589 3.02493L8.90742 10.9315L0.678589 3.02493Z" fill="black"/>
</g>
</svg>
