<svg width="160" height="160" viewBox="0 0 160 160" fill="none" xmlns="http://www.w3.org/2000/svg">
<path d="M88.6302 139.109L92.9732 125.923L95.2987 113.825L118.047 90.624L125.163 94.1872M125.163 94.1872L111.538 113.775M125.163 94.1872L135.816 72.0332L144.999 77.9718L126.306 119.23L103.696 136.794L99.3832 150M71.3579 139.109L67.0249 125.923L64.6894 113.825L41.9511 90.624L34.8354 94.1872M34.8354 94.1872L48.4506 113.775M34.8354 94.1872L24.1818 72.0332L14.999 77.9718L33.6826 119.23L56.2917 136.794L60.6148 150" stroke="#6269F5" stroke-width="10" stroke-linejoin="round"/>
<path d="M61.857 66.0946H48.1523V85.7323H61.857V66.0946Z" fill="#6269F5"/>
<path d="M86.9903 52.2043H73.2857V85.7222H86.9903V52.2043Z" fill="#6269F5"/>
<path d="M112.193 85.7323H98.4887V32.5868H87.7258L105.376 10L122.956 32.5868H112.193V85.7323Z" fill="#6269F5"/>
</svg>
