<svg width="160" height="160" viewBox="0 0 160 160" fill="none" xmlns="http://www.w3.org/2000/svg">
<path d="M54.3857 78.5918C61.9466 78.5918 68.076 72.4604 68.076 64.897C68.076 57.3335 61.9466 51.2021 54.3857 51.2021C46.8247 51.2021 40.6953 57.3335 40.6953 64.897C40.6953 72.4604 46.8247 78.5918 54.3857 78.5918Z" stroke="#6269F5" stroke-width="10" stroke-linejoin="round"/>
<path d="M34.502 146V115.085C34.502 113.501 32.6301 112.665 31.4552 113.73L12 137.783V120.095C12 119.587 12.2091 119.099 12.5874 118.75L33.9743 92.5356C34.3128 92.2269 34.7509 92.0476 35.2089 92.0476H70.4553C70.8038 92.0476 71.1523 91.948 71.441 91.7588L101.57 66.0125C102.784 65.2256 104.387 66.1021 104.387 67.5463V78.5719C104.387 79.1994 104.069 79.787 103.531 80.1157L71.8393 105.981C71.3116 106.32 70.983 106.898 70.983 107.525V145.98" stroke="#6269F5" stroke-width="10" stroke-linejoin="round"/>
<path d="M108.444 20.1855L103.82 19.5394C103.019 19.4276 102.279 19.9861 102.168 20.7869L91.6839 95.8828C91.5721 96.6836 92.1305 97.4235 92.931 97.5353L97.5558 98.1814C98.3564 98.2932 99.096 97.7347 99.2078 96.9339L109.692 21.838C109.803 21.0372 109.245 20.2973 108.444 20.1855Z" fill="#6269F5"/>
<path d="M148 26.4243L117.608 22.1787L114.182 46.7207L144.574 50.9663L148 26.4243Z" fill="#6269F5"/>
<path d="M132.127 41.6397L114.146 46.7292L117.571 22.1582L134.517 24.5287L132.127 41.6397Z" fill="#4D52BF"/>
<path d="M135.354 18.5032L103.118 14L99.8889 37.1315L132.124 41.6346L135.354 18.5032Z" fill="#6269F5"/>
</svg>
