<svg width="300" height="60" viewBox="0 0 300 60" fill="none" xmlns="http://www.w3.org/2000/svg">
<path d="M30 0L36.7354 20.7295H58.5317L40.8981 33.541L47.6336 54.2705L30 41.459L12.3664 54.2705L19.1019 33.541L1.4683 20.7295H23.2646L30 0Z" fill="#FFD338"/>
<path d="M90 0L96.7354 20.7295H118.532L100.898 33.541L107.634 54.2705L90 41.459L72.3664 54.2705L79.1019 33.541L61.4683 20.7295H83.2646L90 0Z" fill="#FFD338"/>
<path d="M150 0L156.735 20.7295H178.532L160.898 33.541L167.634 54.2705L150 41.459L132.366 54.2705L139.102 33.541L121.468 20.7295H143.265L150 0Z" fill="#FFD338"/>
<path d="M210 0L216.735 20.7295H238.532L220.898 33.541L227.634 54.2705L210 41.459L192.366 54.2705L199.102 33.541L181.468 20.7295H203.265L210 0Z" fill="#FFD338"/>
<path d="M270 0L276.735 20.7295H298.532L280.898 33.541L287.634 54.2705L270 41.459L252.366 54.2705L259.102 33.541L241.468 20.7295H263.265L270 0Z" fill="#FFD338"/>
</svg>
